<!-- icons.svg
==============
This is an icon "spritesheet" - a bunch of vector icons defined in the same file.
They can be accessed with their ids.
NOTE: You must be running the site on a server for the icon requests to work properly
-->

<svg xmlns="http://www.w3.org/2000/svg" class="hidden">
  <!-- SIDENAV ICONS -->
  <symbol id="icon-logo" viewBox="0 0 24 24">
    <path d="M17.44,10.6c.13,.36,.02,.77-.27,1.02l-2.17,1.77,.9,2.73c.12,.37,0,.78-.31,1.01-.31,.24-.73,.25-1.06,.04l-2.52-1.64-2.48,1.66c-.15,.1-.33,.15-.51,.15-.19,0-.39-.06-.55-.18-.31-.23-.44-.64-.32-1.01l.86-2.76-2.18-1.77c-.29-.25-.4-.65-.27-1.01,.13-.36,.48-.6,.86-.6h2.75l.97-2.61c.13-.36,.48-.6,.86-.6s.73,.24,.86,.6l.97,2.61h2.75c.38,0,.73,.24,.86,.6Zm6.56,1.4c0,6.62-5.38,12-12,12S0,18.62,0,12,5.38,0,12,0s12,5.38,12,12Zm-3,0c0-4.96-4.04-9-9-9S3,7.04,3,12s4.04,9,9,9,9-4.04,9-9Z"/>
  </symbol>
  <symbol id="icon-home" viewBox="0 0 24 24">
    <path d="M13.768,1.147a2.5,2.5,0,0,0-3.536,0L0,11.38V21a3,3,0,0,0,3,3H21a3,3,0,0,0,3-3V11.38ZM21,21H16V17.818A3.818,3.818,0,0,0,12.182,14h-.364A3.818,3.818,0,0,0,8,17.818V21H3V12.622l9-9,9,9Z"/>
  </symbol>
  <symbol id="icon-profile" viewBox="0 0 24 24">
    <path d="m12,0C5.383,0,0,5.383,0,12s5.383,12,12,12,12-5.383,12-12S18.617,0,12,0Zm-3.48,20.299c.107-1.835,1.619-3.299,3.48-3.299s3.373,1.464,3.48,3.299c-1.071.451-2.247.701-3.48.701s-2.409-.25-3.48-.701Zm9.668-1.781c-.84-2.617-3.296-4.518-6.188-4.518s-5.348,1.901-6.188,4.518c-1.727-1.641-2.812-3.953-2.812-6.518C3,7.037,7.038,3,12,3s9,4.037,9,9c0,2.565-1.084,4.877-2.812,6.518Zm-2.689-10.018c0,1.933-1.567,3.5-3.5,3.5s-3.5-1.567-3.5-3.5,1.567-3.5,3.5-3.5,3.5,1.567,3.5,3.5Z"/>
  </symbol>
  <symbol id="icon-create" viewBox="0 0 24 24">
    <path d="m23.707,7.293c-.391-.391-1.023-.391-1.414,0l-2.293,2.293-5.586-5.586,2.293-2.293c.391-.391.391-1.023,0-1.414s-1.023-.391-1.414,0l-2.845,2.845-5.863,2.169c-1.488.551-2.637,1.791-3.073,3.317L.111,20.545c-.278.946-.018,1.967.68,2.664.513.514,1.202.79,1.904.79.251,0,.504-.035.751-.108l11.884-3.377c1.521-.432,2.76-1.574,3.315-3.054l2.215-5.907,2.846-2.846c.391-.391.391-1.023,0-1.414Zm-6.935,9.465c-.333.888-1.076,1.573-1.989,1.833l-11.12,3.16,5.818-5.818c.165.044.339.068.518.068,1.105,0,2-.895,2-2s-.895-2-2-2-2,.895-2,2c0,.179.024.353.068.518l-5.817,5.817,3.184-11.161c.262-.916.951-1.66,1.844-1.991l5.467-2.023,6.091,6.091-2.065,5.506Z"/>
  </symbol>
  <symbol id="icon-search" viewBox="0 0 513.749 513.749">
    <path d="M504.352,459.061l-99.435-99.477c74.402-99.427,54.115-240.344-45.312-314.746S119.261-9.277,44.859,90.15   S-9.256,330.494,90.171,404.896c79.868,59.766,189.565,59.766,269.434,0l99.477,99.477c12.501,12.501,32.769,12.501,45.269,0   c12.501-12.501,12.501-32.769,0-45.269L504.352,459.061z M225.717,385.696c-88.366,0-160-71.634-160-160s71.634-160,160-160   s160,71.634,160,160C385.623,314.022,314.044,385.602,225.717,385.696z"/>
  </symbol>
  <symbol id="icon-admin" viewBox="0 0 24 24">
    <path d="M11.922,24l-.531-.237C11.007,23.589,2,19.5,2,12V5.525A3,3,0,0,1,4.052,2.679L12,.03l7.949,2.65A2.994,2.994,0,0,1,22,5.525V12c0,8.539-9.137,11.682-9.526,11.812ZM12,3.192,5,5.525V12c0,4.67,5.344,7.847,7.077,8.753C13.819,20.026,19,17.408,19,12V5.525Z"/>
  </symbol>
  <symbol id="icon-login" viewBox="0 0 24 24">
    <path d="M18.589,0H5.411A5.371,5.371,0,0,0,0,5.318V7.182a1.5,1.5,0,0,0,3,0V5.318A2.369,2.369,0,0,1,5.411,3H18.589A2.369,2.369,0,0,1,21,5.318V18.682A2.369,2.369,0,0,1,18.589,21H5.411A2.369,2.369,0,0,1,3,18.682V16.818a1.5,1.5,0,1,0-3,0v1.864A5.371,5.371,0,0,0,5.411,24H18.589A5.371,5.371,0,0,0,24,18.682V5.318A5.371,5.371,0,0,0,18.589,0Z"/>
    <path d="M3.5,12A1.5,1.5,0,0,0,5,13.5H5l9.975-.027-3.466,3.466a1.5,1.5,0,0,0,2.121,2.122l4.586-4.586a3.5,3.5,0,0,0,0-4.95L13.634,4.939a1.5,1.5,0,1,0-2.121,2.122l3.413,3.412L5,10.5A1.5,1.5,0,0,0,3.5,12Z"/>
  </symbol>
  <symbol id="icon-register" viewBox="0 0 24 24">
    <path d="M16,18h-4c-.552,0-1-.447-1-1s.448-1,1-1h4c.552,0,1,.447,1,1s-.448,1-1,1Zm5,1V7c0-2.757-2.243-5-5-5h-.171c-.413-1.164-1.525-2-2.829-2h-2c-1.304,0-2.416,.836-2.829,2h-.171c-2.757,0-5,2.243-5,5v12c0,2.757,2.243,5,5,5h8c2.757,0,5-2.243,5-5ZM9,4c.552,0,1-.447,1-1s.449-1,1-1h2c.551,0,1,.448,1,1s.448,1,1,1h1c1.654,0,3,1.346,3,3v12c0,1.654-1.346,3-3,3H8c-1.654,0-3-1.346-3-3V7c0-1.654,1.346-3,3-3h1Zm-1,12c-.552,0-1,.448-1,1s.448,1,1,1,1-.448,1-1-.448-1-1-1Zm9-3c0-.553-.448-1-1-1h-4c-.552,0-1,.447-1,1s.448,1,1,1h4c.552,0,1-.447,1-1Zm-9-1c-.552,0-1,.448-1,1s.448,1,1,1,1-.448,1-1-.448-1-1-1Zm9-3c0-.553-.448-1-1-1h-4c-.552,0-1,.447-1,1s.448,1,1,1h4c.552,0,1-.447,1-1Zm-9-1c-.552,0-1,.448-1,1s.448,1,1,1,1-.448,1-1-.448-1-1-1Z"/>
  </symbol>
  <symbol id="icon-logout" viewBox="0 0 24 24">
    <path d="M11.5,16A1.5,1.5,0,0,0,10,17.5v.8A2.7,2.7,0,0,1,7.3,21H5.7A2.7,2.7,0,0,1,3,18.3V5.7A2.7,2.7,0,0,1,5.7,3H7.3A2.7,2.7,0,0,1,10,5.7v.8a1.5,1.5,0,0,0,3,0V5.7A5.706,5.706,0,0,0,7.3,0H5.7A5.706,5.706,0,0,0,0,5.7V18.3A5.706,5.706,0,0,0,5.7,24H7.3A5.706,5.706,0,0,0,13,18.3v-.8A1.5,1.5,0,0,0,11.5,16Z"/>
    <path d="M22.561,9.525,17.975,4.939a1.5,1.5,0,0,0-2.121,2.122l3.411,3.411L7,10.5a1.5,1.5,0,0,0,0,3H7l12.318-.028-3.467,3.467a1.5,1.5,0,0,0,2.121,2.122l4.586-4.586A3.505,3.505,0,0,0,22.561,9.525Z"/>
  </symbol>
  <symbol id="icon-about" viewBox="0 0 24 24">
    <path d="M12,0A12,12,0,1,0,24,12,12.013,12.013,0,0,0,12,0Zm0,21a9,9,0,1,1,9-9A9.011,9.011,0,0,1,12,21Z"/>
    <path d="M11.545,9.545h-.3A1.577,1.577,0,0,0,9.64,10.938,1.5,1.5,0,0,0,11,12.532v4.65a1.5,1.5,0,0,0,3,0V12A2.455,2.455,0,0,0,11.545,9.545Z"/>
    <path d="M11.83,8.466A1.716,1.716,0,1,0,10.114,6.75,1.715,1.715,0,0,0,11.83,8.466Z"/>
  </symbol>

  <!-- POST INTERACTION ICONS -->
  <symbol id="icon-like-unfilled" viewBox="0 0 24 24">
    <path d="M12,23.462l-.866-.612C9.994,22.044,0,14.783,0,8.15A7.036,7.036,0,0,1,6.75.875,6.57,6.57,0,0,1,12,3.582,6.57,6.57,0,0,1,17.25.875,7.036,7.036,0,0,1,24,8.15c0,6.633-9.994,13.894-11.134,14.7ZM6.75,3.875A4.043,4.043,0,0,0,3,8.15c0,3.916,5.863,9.21,9,11.611,3.137-2.4,9-7.695,9-11.611a4.043,4.043,0,0,0-3.75-4.275A4.043,4.043,0,0,0,13.5,8.15h-3A4.043,4.043,0,0,0,6.75,3.875Z"/>
  </symbol>
  <symbol id="icon-like-filled" viewBox="0 0 24 24">
    <path d="M17.5.917a6.4,6.4,0,0,0-5.5,3.3A6.4,6.4,0,0,0,6.5.917,6.8,6.8,0,0,0,0,7.967c0,6.775,10.956,14.6,11.422,14.932l.578.409.578-.409C13.044,22.569,24,14.742,24,7.967A6.8,6.8,0,0,0,17.5.917Z"/>
  </symbol>
  <symbol id="icon-save-unfilled" viewBox="0 0 24 24">
    <path d="M17.5,0H6.5A5.507,5.507,0,0,0,1,5.5V20.472a3.5,3.5,0,0,0,6.044,2.4l4.912-5.2,5.013,5.25A3.5,3.5,0,0,0,23,20.51V5.5A5.507,5.507,0,0,0,17.5,0ZM20,20.51a.5.5,0,0,1-.861.345l-6.1-6.391A1.5,1.5,0,0,0,11.95,14h0a1.5,1.5,0,0,0-1.086.47l-6,6.345a.479.479,0,0,1-.549.122A.471.471,0,0,1,4,20.472V5.5A2.5,2.5,0,0,1,6.5,3h11A2.5,2.5,0,0,1,20,5.5Z"/>
  </symbol>
  <symbol id="icon-save-filled" viewBox="0 0 24 24">
    <path d="M2.849,23.55a2.954,2.954,0,0,0,3.266-.644L12,17.053l5.885,5.853a2.956,2.956,0,0,0,2.1.881,3.05,3.05,0,0,0,1.17-.237A2.953,2.953,0,0,0,23,20.779V5a5.006,5.006,0,0,0-5-5H6A5.006,5.006,0,0,0,1,5V20.779A2.953,2.953,0,0,0,2.849,23.55Z"/>
  </symbol>

  <!-- POST MODIFICATION ICONS -->
  <symbol id="icon-edit" viewBox="0 0 24 24">
    <path d="M22.824,1.176a4.108,4.108,0,0,0-5.676,0L0,18.324V24H5.676L22.824,6.852A4.018,4.018,0,0,0,22.824,1.176ZM4.434,21H3V19.566L15.653,6.914l1.434,1.433Z"/>
  </symbol>
  <symbol id="icon-delete" viewBox="0 0 24 24">
    <path d="M21,4H17.9A5.009,5.009,0,0,0,13,0H11A5.009,5.009,0,0,0,6.1,4H3A1,1,0,0,0,3,6H4V19a5.006,5.006,0,0,0,5,5h6a5.006,5.006,0,0,0,5-5V6h1a1,1,0,0,0,0-2ZM11,2h2a3.006,3.006,0,0,1,2.829,2H8.171A3.006,3.006,0,0,1,11,2Zm7,17a3,3,0,0,1-3,3H9a3,3,0,0,1-3-3V6H18Z"/>
    <path d="M10,18a1,1,0,0,0,1-1V11a1,1,0,0,0-2,0v6A1,1,0,0,0,10,18Z"/>
    <path d="M14,18a1,1,0,0,0,1-1V11a1,1,0,0,0-2,0v6A1,1,0,0,0,14,18Z"/>
  </symbol>

  <!-- OTHER ICONS -->
  <symbol id="icon-comment" viewBox="0 0 24 24">
    <path d="M20,0H4A4,4,0,0,0,0,4V16a4,4,0,0,0,4,4H6.9l4.451,3.763a1,1,0,0,0,1.292,0L17.1,20H20a4,4,0,0,0,4-4V4A4,4,0,0,0,20,0Zm2,16a2,2,0,0,1-2,2H17.1a2,2,0,0,0-1.291.473L12,21.69,8.193,18.473h0A2,2,0,0,0,6.9,18H4a2,2,0,0,1-2-2V4A2,2,0,0,1,4,2H20a2,2,0,0,1,2,2Z"/>
    <path d="M7,7h5a1,1,0,0,0,0-2H7A1,1,0,0,0,7,7Z"/>
    <path d="M17,9H7a1,1,0,0,0,0,2H17a1,1,0,0,0,0-2Z"/>
    <path d="M17,13H7a1,1,0,0,0,0,2H17a1,1,0,0,0,0-2Z"/>
  </symbol>

  <!-- TAB ICONS  -->
  <symbol id="icon-recent" viewBox="0 0 24 24">
    <path d="M12,24C5.383,24,0,18.617,0,12S5.383,0,12,0s12,5.383,12,12-5.383,12-12,12Zm0-21C7.038,3,3,7.037,3,12s4.038,9,9,9,9-4.037,9-9S16.963,3,12,3Zm5,9.5c0-.828-.672-1.5-1.5-1.5h-2.5V6.5c0-.828-.671-1.5-1.5-1.5s-1.5,.672-1.5,1.5v6c0,.828,.671,1.5,1.5,1.5h4c.828,0,1.5-.672,1.5-1.5Z"/>
  </symbol>
  <symbol id="icon-popular" viewBox="0 0 24 24">
    <path d="M17.917,5.628c-1.141-1.385-2.321-2.817-3.077-4.335C14.422,.452,13.57-.07,12.655-.007c-.901,.051-1.658,.624-1.974,1.495-.339,.934-.681,2.635-.681,4.328,0,2.276,.738,3.692,1.332,4.829,.49,.94,.743,1.466,.674,2.22-.058,.646-.661,1.148-1.354,1.148-1.345-.016-2.099-.757-2.233-4.624-.039-1.102-.779-2.029-1.842-2.308-1.063-.28-2.157,.166-2.728,1.104-.86,1.411-1.849,3.336-1.849,5.717,0,5.562,4.462,10.087,9.946,10.087,5.509-.034,10.053-4.56,10.053-10.062,.055-3.275-2.048-5.829-4.082-8.3Zm1.082,8.274c0,3.884-3.188,7.062-7.053,7.087-3.83,0-6.946-3.179-6.946-7.087,0-.808,.175-1.618,.552-2.511,.293,2.405,1.294,5.578,5.066,5.622,2.233,0,4.178-1.694,4.375-3.878,.151-1.666-.461-2.841-1.002-3.877-.51-.978-.992-1.901-.992-3.442,0-.516,.042-1.047,.109-1.541,.759,1.155,1.636,2.22,2.493,3.26,1.843,2.238,3.435,4.172,3.398,6.367Z"/>
  </symbol>
  <symbol id="icon-post" viewBox="0 0 24 24">
    <path d="M18.5,0H5.5C2.47,0,0,2.47,0,5.5v13c0,3.03,2.47,5.5,5.5,5.5h13c3.03,0,5.5-2.47,5.5-5.5V5.5c0-3.03-2.47-5.5-5.5-5.5Zm2.5,18.5c0,1.38-1.12,2.5-2.5,2.5H5.5c-1.38,0-2.5-1.12-2.5-2.5V5.5c0-1.38,1.12-2.5,2.5-2.5h13c1.38,0,2.5,1.12,2.5,2.5v13ZM5,6.5c0-.83,.67-1.5,1.5-1.5H14.5c.83,0,1.5,.67,1.5,1.5s-.67,1.5-1.5,1.5H6.5c-.83,0-1.5-.67-1.5-1.5Zm14,5.5c0,.83-.67,1.5-1.5,1.5H6.5c-.83,0-1.5-.67-1.5-1.5s.67-1.5,1.5-1.5h11c.83,0,1.5,.67,1.5,1.5Zm-9,5.5c0,.83-.67,1.5-1.5,1.5h-2c-.83,0-1.5-.67-1.5-1.5s.67-1.5,1.5-1.5h2c.83,0,1.5,.67,1.5,1.5Z"/>
  </symbol>
  <symbol id="icon-settings" viewBox="0 0 24 24">
    <path d="M12,8a4,4,0,1,0,4,4A4,4,0,0,0,12,8Zm0,6a2,2,0,1,1,2-2A2,2,0,0,1,12,14Z"/>
    <path d="M21.294,13.9l-.444-.256a9.1,9.1,0,0,0,0-3.29l.444-.256a3,3,0,1,0-3-5.2l-.445.257A8.977,8.977,0,0,0,15,3.513V3A3,3,0,0,0,9,3v.513A8.977,8.977,0,0,0,6.152,5.159L5.705,4.9a3,3,0,0,0-3,5.2l.444.256a9.1,9.1,0,0,0,0,3.29l-.444.256a3,3,0,1,0,3,5.2l.445-.257A8.977,8.977,0,0,0,9,20.487V21a3,3,0,0,0,6,0v-.513a8.977,8.977,0,0,0,2.848-1.646l.447.258a3,3,0,0,0,3-5.2Zm-2.548-3.776a7.048,7.048,0,0,1,0,3.75,1,1,0,0,0,.464,1.133l1.084.626a1,1,0,0,1-1,1.733l-1.086-.628a1,1,0,0,0-1.215.165,6.984,6.984,0,0,1-3.243,1.875,1,1,0,0,0-.751.969V21a1,1,0,0,1-2,0V19.748a1,1,0,0,0-.751-.969A6.984,6.984,0,0,1,7.006,16.9a1,1,0,0,0-1.215-.165l-1.084.627a1,1,0,1,1-1-1.732l1.084-.626a1,1,0,0,0,.464-1.133,7.048,7.048,0,0,1,0-3.75A1,1,0,0,0,4.79,8.992L3.706,8.366a1,1,0,0,1,1-1.733l1.086.628A1,1,0,0,0,7.006,7.1a6.984,6.984,0,0,1,3.243-1.875A1,1,0,0,0,11,4.252V3a1,1,0,0,1,2,0V4.252a1,1,0,0,0,.751.969A6.984,6.984,0,0,1,16.994,7.1a1,1,0,0,0,1.215.165l1.084-.627a1,1,0,1,1,1,1.732l-1.084.626A1,1,0,0,0,18.746,10.125Z"/>
  </symbol>

  <!-- THEME ICONS -->
  <symbol id="icon-theme-default" viewBox="0 0 24 24">
    <path d="M12,0C5.38,0,0,5.38,0,12s5.38,12,12,12,12-5.38,12-12S18.62,0,12,0Zm0,21V3c4.96,0,9,4.04,9,9s-4.04,9-9,9Z"/>
  </symbol>
  <symbol id="icon-theme-light" viewBox="0 0 24 24">
    <path d="M12,7c-2.76,0-5,2.24-5,5s2.24,5,5,5,5-2.24,5-5-2.24-5-5-5Zm0,7c-1.1,0-2-.9-2-2s.9-2,2-2,2,.9,2,2-.9,2-2,2Zm4.95-6.95c-.59-.59-.59-1.54,0-2.12l1.41-1.41c.59-.59,1.54-.59,2.12,0,.59,.59,.59,1.54,0,2.12l-1.41,1.41c-.29,.29-.68,.44-1.06,.44s-.77-.15-1.06-.44ZM7.05,16.95c.59,.59,.59,1.54,0,2.12l-1.41,1.41c-.29,.29-.68,.44-1.06,.44s-.77-.15-1.06-.44c-.59-.59-.59-1.54,0-2.12l1.41-1.41c.59-.59,1.54-.59,2.12,0ZM3.51,5.64c-.59-.59-.59-1.54,0-2.12,.59-.59,1.54-.59,2.12,0l1.41,1.41c.59,.59,.59,1.54,0,2.12-.29,.29-.68,.44-1.06,.44s-.77-.15-1.06-.44l-1.41-1.41Zm16.97,12.73c.59,.59,.59,1.54,0,2.12-.29,.29-.68,.44-1.06,.44s-.77-.15-1.06-.44l-1.41-1.41c-.59-.59-.59-1.54,0-2.12,.59-.59,1.54-.59,2.12,0l1.41,1.41Zm3.51-6.36c0,.83-.67,1.5-1.5,1.5h-2c-.83,0-1.5-.67-1.5-1.5s.67-1.5,1.5-1.5h2c.83,0,1.5,.67,1.5,1.5ZM3.5,13.5H1.5c-.83,0-1.5-.67-1.5-1.5s.67-1.5,1.5-1.5H3.5c.83,0,1.5,.67,1.5,1.5s-.67,1.5-1.5,1.5ZM10.5,3.5V1.5c0-.83,.67-1.5,1.5-1.5s1.5,.67,1.5,1.5V3.5c0,.83-.67,1.5-1.5,1.5s-1.5-.67-1.5-1.5Zm3,17v2c0,.83-.67,1.5-1.5,1.5s-1.5-.67-1.5-1.5v-2c0-.83,.67-1.5,1.5-1.5s1.5,.67,1.5,1.5Z"/>
  </symbol>
  <symbol id="icon-theme-dark" viewBox="0 0 24 24">
    <path d="M15,24A12,12,0,1,1,19.058.71a2.93,2.93,0,0,1,.814,5.067c-5.1,3.92-5.088,8.539,0,12.446a2.93,2.93,0,0,1-.816,5.067A12.2,12.2,0,0,1,15,24ZM15,3a9,9,0,1,0,2.925,17.508c-6.511-5.065-6.489-11.969,0-17.016A9.322,9.322,0,0,0,15,3Z"/>
  </symbol>
</svg>